<?xml version="1.0" standalone="no"?>
<!DOCTYPE svg PUBLIC "-//W3C//DTD SVG 20010904//EN"
        "http://www.w3.org/TR/2001/REC-SVG-20010904/DTD/svg10.dtd">
<svg version="1.0" xmlns="http://www.w3.org/2000/svg"
     viewBox="1350 1150 1800 2250"
     preserveAspectRatio="xMidYMid meet">

    <g transform="translate(0.000000,4501.000000) scale(0.100000,-0.100000)"
       fill="#ffffff" stroke="none">
        <path d="M21172 30872 c-375 -669 -725 -1292 -776 -1384 l-95 -168 74 -60 c40
-33 78 -60 84 -60 6 0 421 473 922 1051 875 1009 912 1050 929 1032 10 -10
417 -479 905 -1043 488 -564 893 -1030 899 -1037 15 -17 169 104 163 127 -3 8
-351 632 -775 1385 l-769 1370 -439 2 -439 3 -683 -1218z"/>
        <path d="M17267 30393 c-4 -3 -7 -305 -7 -670 l0 -663 -507 0 c-555 0 -754 9
-890 39 -371 81 -672 285 -868 589 -116 181 -176 361 -200 605 l-7 67 -64 0
-64 0 2 -2047 3 -2048 62 -3 61 -3 7 68 c31 336 159 612 390 839 144 141 319
246 524 314 218 72 232 73 929 78 l622 3 0 -3830 0 -3831 -527 0 c-578 0 -734
8 -896 45 -339 77 -639 279 -822 554 -136 205 -191 366 -220 644 l-6 57 -65 0
-64 0 2 -2047 3 -2048 62 -3 61 -3 6 58 c20 199 53 326 120 468 191 402 546
665 1016 752 90 17 411 18 6485 18 5990 0 6396 -1 6485 -17 212 -38 418 -120
577 -230 318 -219 528 -577 560 -953 l8 -90 63 -3 62 -3 0 2051 0 2050 -65 0
-65 0 0 -47 c0 -130 -61 -366 -131 -505 -58 -117 -143 -232 -249 -338 -242
-242 -533 -371 -904 -400 -71 -6 -1081 -9 -2451 -9 l-2330 0 144 45 c714 224
1335 559 1896 1025 133 111 419 397 530 532 390 472 642 966 760 1491 54 245
68 379 69 666 0 284 -11 400 -60 634 -282 1335 -1447 2496 -3058 3045 -235 80
-434 133 -786 209 -29 7 888 9 2655 8 2537 -1 2705 -2 2788 -19 219 -44 427
-130 582 -241 309 -222 511 -572 542 -941 l8 -90 63 -3 62 -3 0 2051 0 2050
-65 0 -65 0 0 -47 c0 -27 -7 -89 -15 -140 -82 -503 -454 -910 -966 -1053 -186
-52 126 -48 -5356 -56 l-5103 -7 0 672 0 671 -663 0 c-365 0 -667 -3 -670 -7z
m3893 -2863 c-942 -199 -1811 -613 -2464 -1174 -48 -42 -90 -76 -92 -76 -2 0
-4 288 -4 640 l0 640 1348 -1 1347 0 -135 -29z m1635 -56 c1503 -135 2636
-1023 3100 -2429 281 -854 281 -1905 -1 -2761 -140 -427 -329 -783 -600 -1134
-105 -136 -380 -415 -514 -521 -422 -335 -853 -542 -1430 -687 l-145 -36 -814
-4 c-901 -3 -833 -7 -1116 65 -1175 299 -2037 1103 -2439 2273 -209 608 -278
1336 -190 2023 118 928 520 1745 1134 2305 765 696 1820 1014 3015 906z
m-4102 -6495 c490 -425 1146 -786 1832 -1009 88 -28 171 -56 185 -60 14 -5
-455 -9 -1042 -9 l-1068 -1 0 575 c0 316 2 575 5 575 3 0 42 -32 88 -71z"/>
        <path d="M20006 16248 c-8 -13 -53 -92 -100 -177 -76 -136 -97 -191 -67 -179
6 2 83 88 236 266 1 2 55 -58 120 -133 64 -74 121 -135 125 -135 26 0 11 36
-81 199 l-101 181 -59 0 c-50 0 -61 -3 -73 -22z"/>
        <path d="M22360 16199 c-52 -5 -179 -13 -283 -17 -179 -7 -232 -18 -156 -33
46 -10 81 -39 107 -89 l22 -44 0 -850 c0 -839 0 -850 -21 -892 -22 -46 -63
-77 -116 -89 -63 -13 -32 -25 65 -25 54 0 170 -7 258 -16 187 -19 408 -14 499
10 163 44 284 113 395 225 132 132 184 256 182 430 -2 197 -100 358 -274 451
-60 32 -191 70 -241 70 -25 0 -14 8 59 44 227 111 327 240 328 426 0 72 -4 94
-28 147 -53 118 -169 199 -336 238 -89 21 -321 28 -460 14z m314 -44 c137 -29
242 -112 282 -225 25 -71 30 -214 10 -286 -42 -145 -162 -253 -355 -319 -39
-13 -94 -36 -123 -52 -70 -38 -159 -131 -202 -211 l-35 -67 -1 577 0 577 43 5
c129 18 301 18 381 1z m208 -898 c155 -75 236 -251 225 -487 -13 -267 -168
-483 -408 -567 -88 -31 -175 -38 -334 -28 l-117 7 4 352 c4 330 6 354 26 409
64 174 189 302 329 337 21 5 79 8 128 6 74 -2 100 -7 147 -29z"/>
        <path d="M14730 16166 c0 -8 16 -16 39 -20 51 -8 105 -58 120 -111 8 -28 11
-295 11 -873 0 -910 2 -872 -58 -935 -15 -15 -46 -33 -69 -39 -24 -6 -43 -14
-43 -19 0 -5 121 -9 270 -9 149 0 270 4 270 9 0 5 -20 14 -44 20 -52 13 -100
62 -115 118 -7 24 -11 189 -11 436 l0 397 495 0 495 0 0 -397 c0 -247 -4 -412
-11 -436 -15 -56 -63 -105 -115 -118 -24 -6 -44 -15 -44 -20 0 -5 121 -9 270
-9 149 0 270 4 270 9 0 5 -19 13 -43 19 -23 6 -54 24 -69 39 -60 63 -58 25
-58 935 0 578 3 845 11 873 15 53 69 103 120 111 23 4 39 12 39 20 0 12 -48
14 -270 14 -222 0 -270 -2 -270 -14 0 -8 16 -16 40 -20 49 -8 105 -60 119
-113 7 -24 11 -191 11 -440 l0 -403 -495 0 -495 0 0 403 c0 249 4 416 11 440
14 53 70 105 119 113 24 4 40 12 40 20 0 12 -48 14 -270 14 -222 0 -270 -2
-270 -14z"/>
        <path d="M18035 16170 c-6 -10 1 -14 46 -24 39 -8 79 -45 100 -90 18 -39 19
-85 19 -890 0 -839 0 -850 -21 -892 -22 -46 -63 -77 -116 -89 -85 -18 -15 -25
237 -25 158 0 270 4 270 9 0 5 -13 12 -28 16 -41 8 -88 40 -109 72 -17 25 -18
83 -23 973 l-5 945 -182 3 c-117 1 -184 -1 -188 -8z"/>
        <path d="M18670 16166 c0 -8 16 -16 40 -20 49 -8 105 -60 119 -113 15 -52 15
-1674 0 -1726 -15 -56 -63 -105 -115 -118 -24 -6 -44 -15 -44 -20 0 -5 121 -9
270 -9 149 0 270 4 270 9 0 5 -19 13 -43 19 -23 6 -54 24 -69 39 -61 63 -58
16 -58 1028 l0 925 -185 0 c-150 0 -185 -3 -185 -14z"/>
        <path d="M27295 15992 c-35 -55 -106 -106 -178 -127 -69 -21 -207 -35 -343
-35 -135 0 -233 -23 -342 -80 -187 -97 -324 -267 -379 -470 -27 -102 -25 -293
5 -390 30 -93 68 -169 120 -239 l40 -53 -58 -55 c-132 -122 -155 -278 -58
-388 46 -52 97 -81 182 -105 l59 -17 -59 -36 c-181 -109 -273 -298 -230 -467
48 -187 206 -322 461 -392 110 -30 343 -36 465 -10 245 50 424 173 513 351 46
91 60 163 55 275 -3 77 -8 99 -33 144 -35 65 -86 112 -163 151 -120 60 -250
84 -596 106 -357 23 -478 47 -552 109 -85 70 -85 170 1 265 l37 41 37 -33
c133 -120 324 -197 491 -197 195 0 409 100 547 254 261 294 256 730 -12 1010
-65 69 -174 144 -251 175 l-49 19 60 7 c131 16 286 74 354 131 l32 27 -58 38
c-32 22 -60 39 -63 38 -3 0 -18 -21 -35 -47z m-372 -222 c221 -69 356 -283
382 -610 8 -94 -7 -253 -31 -345 -28 -101 -89 -219 -150 -284 -170 -184 -488
-199 -676 -32 -154 137 -237 413 -208 694 38 380 229 596 526 597 64 0 111 -6
157 -20z m-268 -1775 c355 -31 497 -58 596 -111 102 -56 159 -151 159 -263 -1
-220 -176 -397 -448 -453 -136 -28 -313 -22 -428 16 -96 31 -186 86 -237 147
-120 139 -147 349 -67 513 33 66 54 94 115 144 37 31 44 33 90 28 28 -4 127
-13 220 -21z"/>
        <path d="M17191 15814 c-287 -77 -508 -307 -588 -613 -36 -137 -36 -306 0
-443 79 -299 316 -546 588 -612 134 -33 318 -15 452 43 95 41 267 174 267 206
0 30 -19 21 -84 -40 -124 -117 -296 -185 -465 -185 -156 0 -272 50 -372 159
-126 137 -196 340 -206 594 l-6 147 264 0 c281 0 389 9 507 40 149 41 268 124
320 225 35 68 36 167 3 242 -48 108 -187 206 -337 238 -88 19 -272 18 -343 -1z
m320 -51 c113 -51 170 -143 177 -283 9 -192 -65 -292 -255 -347 -46 -13 -120
-17 -354 -20 l-296 -5 9 67 c41 304 207 538 427 601 70 20 235 13 292 -13z"/>
        <path d="M19904 15811 c-137 -37 -258 -114 -370 -234 -116 -124 -189 -273
-219 -442 -28 -161 -12 -325 45 -473 100 -260 324 -464 568 -518 115 -26 273
-16 378 23 200 75 361 224 459 426 118 245 118 529 0 774 -98 201 -259 351
-459 426 -71 26 -96 31 -206 34 -100 2 -139 -1 -196 -16z m301 -35 c143 -38
261 -142 338 -296 72 -146 107 -309 107 -500 0 -414 -173 -724 -445 -796 -67
-18 -187 -17 -260 1 -210 55 -369 269 -421 569 -21 119 -21 333 0 452 52 297
210 512 417 568 69 19 199 20 264 2z"/>
        <path d="M24084 15811 c-132 -36 -250 -108 -355 -217 -109 -115 -169 -218
-216 -371 -24 -79 -27 -103 -27 -243 0 -140 3 -164 27 -243 76 -249 240 -443
459 -547 150 -71 360 -80 515 -22 240 89 420 284 509 552 27 80 28 95 28 260
0 165 -1 180 -28 260 -89 268 -269 463 -509 553 -72 26 -97 31 -207 34 -100 2
-139 -1 -196 -16z m307 -37 c91 -27 151 -64 220 -133 292 -298 292 -1024 0
-1322 -102 -103 -212 -149 -357 -149 -313 0 -526 263 -564 697 -33 377 97 731
315 859 107 62 269 83 386 48z"/>
        <path d="M25690 15821 c-69 -23 -118 -63 -159 -131 l-21 -35 0 73 0 72 -185 0
c-102 0 -185 -4 -185 -9 0 -5 19 -13 43 -19 50 -13 103 -64 117 -113 6 -20 10
-286 10 -679 0 -393 -4 -659 -10 -679 -14 -49 -67 -100 -117 -113 -24 -6 -43
-14 -43 -19 0 -5 121 -9 270 -9 149 0 270 4 270 8 0 5 -17 14 -39 20 -48 15
-86 45 -109 85 -15 29 -17 83 -20 582 -4 630 1 706 51 805 25 51 42 70 81 95
45 27 57 30 136 30 80 0 89 -2 124 -29 21 -15 42 -39 48 -52 6 -13 15 -24 19
-24 7 0 84 97 84 107 0 3 -18 13 -40 21 -46 16 -285 26 -325 13z"/>
        <path d="M28288 15815 c-135 -33 -268 -115 -380 -233 -315 -334 -315 -870 0
-1204 159 -168 332 -248 543 -248 186 0 350 66 487 196 60 56 74 75 65 84 -9
10 -23 1 -62 -38 -132 -132 -298 -202 -481 -202 -160 0 -264 44 -374 161 -76
80 -136 196 -172 335 -21 78 -28 131 -31 252 l-5 152 259 0 c354 0 486 18 628
85 85 40 156 100 193 163 24 42 27 57 27 137 0 76 -4 97 -25 139 -51 101 -180
187 -327 220 -88 20 -265 20 -345 1z m339 -64 c67 -36 102 -74 136 -149 18
-38 22 -66 22 -148 0 -92 -2 -105 -30 -159 -51 -101 -146 -155 -307 -175 -45
-5 -192 -10 -326 -10 l-243 0 7 48 c14 101 56 240 96 321 72 147 210 267 345
301 21 5 83 8 138 7 92 -2 105 -5 162 -36z"/>
        <path d="M29540 15815 c-165 -46 -286 -158 -331 -307 -44 -142 -9 -270 102
-372 70 -65 150 -106 349 -177 267 -95 362 -156 417 -267 25 -51 28 -68 28
-157 0 -93 -2 -105 -33 -167 -38 -78 -82 -120 -172 -162 -62 -30 -70 -31 -195
-31 -111 1 -138 4 -187 23 -155 62 -264 197 -302 375 -4 15 -11 27 -16 27 -6
0 -10 -83 -10 -220 0 -121 4 -220 8 -220 5 0 14 11 20 25 15 33 52 33 163 0
137 -42 214 -55 323 -55 120 0 193 17 288 67 192 101 286 318 233 541 -47 199
-169 300 -505 422 -230 83 -298 125 -345 212 -25 44 -29 64 -29 123 0 183 139
295 362 295 102 -1 155 -11 228 -46 103 -49 194 -173 210 -286 14 -102 24 -40
24 147 0 114 -4 195 -9 195 -5 0 -11 -10 -13 -22 -5 -35 -44 -34 -170 8 -103
34 -124 37 -248 40 -99 3 -150 0 -190 -11z"/>
        <path d="M16027 13640 c-126 -32 -206 -128 -207 -249 0 -75 17 -125 61 -175
54 -61 124 -90 219 -90 192 0 316 154 266 328 -39 134 -198 221 -339 186z
m154 -62 c104 -35 159 -145 130 -256 -26 -96 -110 -147 -228 -140 -130 8 -194
66 -201 184 -7 100 30 167 113 205 46 21 135 25 186 7z"/>
        <path d="M18207 13640 c-126 -32 -206 -128 -207 -249 0 -75 17 -125 61 -175
54 -61 124 -90 219 -90 192 0 316 154 266 328 -39 134 -198 221 -339 186z
m154 -62 c104 -35 159 -145 130 -256 -26 -96 -110 -147 -228 -140 -130 8 -194
66 -201 184 -7 100 30 167 113 205 46 21 135 25 186 7z"/>
        <path d="M19407 13640 c-138 -35 -204 -128 -195 -274 6 -93 39 -154 105 -196
111 -71 283 -59 366 25 27 27 28 32 25 114 l-3 86 -132 3 c-128 2 -133 2 -133
-18 0 -19 6 -20 110 -20 l110 0 0 -59 c0 -52 -3 -62 -26 -80 -40 -31 -90 -43
-162 -39 -129 8 -193 67 -200 183 -10 149 63 224 214 225 83 0 129 -13 166
-47 l26 -25 12 22 c9 18 8 25 -6 41 -45 50 -189 81 -277 59z"/>
        <path d="M14810 13390 l0 -250 30 0 30 0 0 105 0 105 145 0 145 0 0 25 0 25
-145 0 -145 0 0 90 0 90 163 2 162 3 0 25 0 25 -192 3 -193 2 0 -250z"/>
        <path d="M16970 13610 l0 -30 95 0 95 0 0 -220 0 -220 30 0 30 0 0 220 0 219
98 3 c96 3 97 3 97 28 l0 25 -222 3 -223 2 0 -30z"/>
        <path d="M20380 13390 l0 -250 30 0 30 0 0 90 0 90 99 0 99 0 83 -90 c74 -81
85 -90 118 -90 l36 0 -94 94 -94 94 34 15 c137 57 124 247 -19 287 -20 5 -101
10 -179 10 l-143 0 0 -250z m331 180 c23 -13 49 -61 49 -90 0 -35 -29 -86 -56
-99 -14 -6 -76 -11 -144 -11 l-120 0 0 105 0 105 126 0 c69 0 134 -5 145 -10z"/>
        <path d="M21691 13603 c-10 -21 -71 -134 -135 -251 l-115 -213 31 3 c28 3 36
11 67 70 l36 68 156 0 157 0 36 -70 c33 -62 40 -70 67 -70 16 0 29 2 29 3 0 2
-60 114 -133 248 -148 270 -159 283 -196 212z m107 -158 c34 -63 62 -117 62
-120 0 -3 -59 -5 -131 -5 -72 0 -129 3 -127 8 15 35 124 232 128 232 3 0 33
-52 68 -115z"/>
        <path d="M22660 13390 l0 -250 30 0 30 0 0 105 0 105 145 0 145 0 0 25 0 25
-145 0 -145 0 0 90 0 90 163 2 162 3 0 25 0 25 -192 3 -193 2 0 -250z"/>
        <path d="M23707 13633 c-4 -3 -7 -116 -7 -250 l0 -243 30 0 30 0 0 250 0 250
-23 0 c-13 0 -27 -3 -30 -7z"/>
        <path d="M24651 13603 c-10 -21 -71 -134 -135 -251 l-115 -213 31 3 c28 3 36
11 67 70 l36 68 156 0 157 0 36 -70 c33 -62 40 -70 67 -70 16 0 29 2 29 3 0 2
-60 114 -133 248 -148 270 -159 283 -196 212z m107 -158 c34 -63 62 -117 62
-120 0 -3 -59 -5 -131 -5 -72 0 -129 3 -127 8 15 35 124 232 128 232 3 0 33
-52 68 -115z"/>
    </g>
</svg>