<?xml version="1.0" standalone="no"?>
<!DOCTYPE svg PUBLIC "-//W3C//DTD SVG 20010904//EN"
        "http://www.w3.org/TR/2001/REC-SVG-20010904/DTD/svg10.dtd">
<svg version="1.0" xmlns="http://www.w3.org/2000/svg"
     viewBox="1000 2000 2500 600"
     preserveAspectRatio="xMidYMid meet">

    <g transform="translate(0.000000,4501.000000) scale(0.100000,-0.100000)"
       fill="#ffffff" stroke="none">
        <path d="M18132 24599 c-119 -212 -150 -275 -141 -285 6 -8 15 -14 19 -14 5 0
86 90 181 200 95 110 176 199 180 198 3 -2 83 -92 178 -200 95 -109 176 -198
180 -198 5 0 13 6 19 13 8 9 -25 76 -129 262 -77 138 -147 260 -155 273 -13
20 -22 22 -97 22 l-83 0 -152 -271z"/>
        <path d="M21685 24750 c-121 -10 -309 -19 -417 -19 -191 -1 -198 -2 -198 -21
0 -15 7 -20 28 -20 34 0 109 -34 140 -63 13 -12 36 -44 50 -72 l27 -50 0
-1285 0 -1285 -24 -48 c-38 -77 -97 -120 -193 -141 -16 -4 -28 -13 -28 -21 0
-13 27 -15 178 -15 110 0 253 -8 377 -21 250 -26 465 -28 600 -4 497 86 879
410 960 814 14 65 16 113 12 205 -7 142 -23 210 -80 326 -34 70 -58 102 -136
181 -85 84 -108 101 -201 147 -114 56 -189 78 -319 96 l-85 11 70 28 c93 36
234 117 311 179 168 133 253 296 253 488 0 322 -228 533 -642 594 -137 21
-396 19 -683 -4z m592 -60 c272 -69 416 -250 430 -541 15 -291 -118 -496 -412
-638 -55 -27 -131 -59 -170 -71 -214 -69 -368 -203 -472 -410 l-32 -65 -1 862
0 862 53 6 c233 28 480 26 604 -5z m203 -1306 c270 -79 420 -333 420 -709 0
-270 -87 -488 -269 -678 -149 -156 -360 -255 -580 -273 -70 -6 -372 10 -413
22 -17 5 -18 38 -18 508 0 569 1 581 80 738 49 99 90 155 169 233 133 132 284
189 471 180 47 -3 110 -12 140 -21z"/>
        <path d="M10385 24720 c-10 -16 4 -30 31 -30 68 0 151 -63 190 -145 l24 -50 0
-1271 c0 -937 -3 -1280 -12 -1305 -28 -85 -123 -169 -189 -169 -31 0 -53 -15
-45 -29 5 -8 123 -11 402 -11 341 0 394 2 394 15 0 8 -12 17 -27 21 -100 22
-158 66 -194 146 l-24 53 -3 623 -3 622 741 0 740 0 0 -608 c0 -686 1 -679
-71 -757 -38 -41 -83 -65 -151 -79 -16 -4 -28 -13 -28 -21 0 -13 53 -15 400
-15 347 0 400 2 400 15 0 8 -12 17 -27 21 -69 14 -114 38 -152 79 -75 82 -71
-1 -71 1395 0 1379 -3 1307 65 1387 38 45 109 83 155 83 23 0 30 4 30 20 0 20
-7 20 -400 20 -393 0 -400 0 -400 -20 0 -15 7 -20 28 -20 44 0 126 -44 160
-86 62 -75 62 -75 62 -751 l0 -613 -740 0 -740 0 0 600 c0 385 4 617 11 649
22 103 105 186 199 198 30 4 40 10 40 24 0 18 -16 19 -394 19 -253 0 -397 -4
-401 -10z"/>
        <path d="M15320 24711 c0 -14 9 -20 40 -24 95 -12 178 -96 200 -201 7 -35 10
-445 8 -1296 l-3 -1245 -24 -53 c-36 -80 -94 -124 -193 -146 -16 -4 -28 -13
-28 -21 0 -13 50 -15 397 -13 300 2 397 6 400 15 3 7 -7 15 -21 18 -14 3 -36
7 -49 10 -46 9 -113 64 -143 117 l-29 53 -5 1400 -5 1400 -272 3 c-262 2 -273
2 -273 -17z"/>
        <path d="M16270 24710 c0 -15 7 -20 28 -20 34 0 109 -34 140 -63 13 -12 36
-44 50 -72 l27 -50 0 -1285 0 -1285 -23 -47 c-38 -77 -98 -121 -194 -142 -16
-4 -28 -13 -28 -21 0 -13 53 -15 400 -15 347 0 400 2 400 15 0 8 -12 17 -27
21 -96 21 -156 63 -196 138 l-22 41 -5 1400 -5 1400 -272 3 c-268 2 -273 2
-273 -18z"/>
        <path d="M29174 24479 c-59 -117 -189 -203 -364 -240 -72 -15 -159 -22 -360
-29 -277 -9 -347 -19 -479 -70 -320 -124 -572 -402 -666 -733 -92 -327 -24
-685 184 -965 l60 -80 -41 -28 c-61 -42 -145 -141 -179 -209 -79 -160 -56
-327 59 -440 56 -55 177 -117 282 -143 l75 -19 -60 -31 c-203 -102 -351 -286
-392 -487 -13 -66 -14 -95 -5 -166 59 -479 678 -784 1362 -673 494 81 833 396
879 816 41 372 -160 585 -632 668 -148 26 -262 37 -562 55 -441 27 -610 53
-740 114 -119 56 -169 125 -169 237 0 77 34 150 104 223 l50 52 69 -62 c143
-130 324 -222 511 -261 79 -17 121 -19 245 -15 183 6 265 26 420 101 233 114
405 282 523 513 95 186 128 341 119 552 -12 273 -115 516 -301 710 -116 120
-237 204 -376 260 -81 32 -79 36 19 46 178 18 438 114 535 198 l40 34 -92 62
-92 61 -26 -51z m-628 -344 c389 -87 623 -476 624 -1035 0 -370 -101 -664
-294 -855 -140 -140 -293 -199 -511 -199 -180 0 -315 44 -450 147 -270 204
-405 683 -330 1172 40 260 136 460 292 605 143 133 327 197 533 183 41 -3 102
-11 136 -18z m-618 -2640 c64 -8 227 -24 362 -35 424 -36 611 -71 765 -144
191 -91 267 -209 266 -416 0 -144 -35 -247 -126 -368 -184 -245 -612 -378
-1018 -317 -425 64 -688 341 -687 727 1 170 61 334 166 447 45 49 135 121 152
121 2 0 56 -7 120 -15z"/>
        <path d="M14125 24198 c-93 -17 -190 -50 -283 -95 -356 -173 -623 -544 -688
-953 -22 -139 -15 -389 15 -506 79 -315 246 -576 484 -755 95 -71 273 -160
377 -189 168 -45 354 -45 533 1 177 44 396 175 521 310 45 49 54 64 45 75 -6
8 -14 14 -18 14 -4 0 -42 -35 -86 -78 -137 -135 -288 -220 -473 -269 -125 -33
-338 -38 -442 -10 -260 69 -467 284 -579 601 -58 165 -82 308 -88 533 l-6 201
469 5 c493 5 516 7 702 57 43 11 124 44 182 72 477 236 404 773 -130 947 -140
46 -398 65 -535 39z m320 -59 c121 -27 251 -123 303 -224 51 -101 72 -243 53
-365 -24 -156 -105 -268 -242 -333 -154 -73 -270 -86 -761 -87 l-348 0 0 29
c0 43 28 196 51 281 29 105 82 231 137 325 68 115 203 249 307 302 165 85 330
108 500 72z"/>
        <path d="M18204 24199 c-148 -25 -337 -108 -469 -206 -344 -256 -539 -672
-521 -1108 14 -343 144 -643 381 -880 247 -247 565 -369 872 -334 260 29 467
132 669 333 265 265 388 564 388 941 -1 179 -18 281 -74 440 -149 419 -498
733 -903 810 -85 16 -259 18 -343 4z m346 -66 c337 -78 572 -400 656 -898 24
-139 24 -441 1 -593 -51 -330 -185 -602 -372 -755 -66 -54 -212 -128 -289
-146 -79 -19 -205 -24 -285 -12 -314 49 -540 268 -666 643 -60 179 -78 311
-79 558 -1 227 8 303 50 473 82 327 252 568 479 677 44 21 100 44 125 50 116
31 257 32 380 3z"/>
        <path d="M24410 24191 c-468 -103 -845 -514 -936 -1021 -25 -137 -23 -355 5
-487 58 -280 183 -507 385 -701 339 -325 789 -406 1191 -213 350 169 603 498
691 902 22 100 30 335 15 440 -74 522 -433 947 -904 1070 -117 31 -330 36
-447 10z m397 -62 c352 -89 593 -449 654 -979 15 -130 7 -421 -15 -540 -57
-305 -165 -532 -329 -686 -85 -80 -158 -126 -254 -159 -273 -95 -561 -32 -762
165 -154 150 -270 392 -316 658 -67 380 -17 809 127 1096 184 369 526 539 895
445z"/>
        <path d="M26769 24196 c-110 -32 -211 -113 -258 -208 l-20 -42 -3 110 -3 109
-272 3 c-262 2 -273 2 -273 -17 0 -14 9 -20 40 -24 95 -13 178 -96 200 -201 7
-35 10 -361 8 -1021 l-3 -970 -27 -51 c-41 -79 -94 -117 -190 -138 -16 -4 -28
-13 -28 -21 0 -13 50 -15 397 -13 300 2 397 6 400 15 3 7 -8 15 -24 18 -102
22 -160 66 -199 150 l-24 50 0 875 c0 519 4 903 10 943 38 261 169 389 400
390 55 0 87 -5 120 -20 49 -22 113 -82 137 -127 l15 -29 23 29 c13 17 44 54
68 84 53 63 55 61 -60 91 -100 27 -363 36 -434 15z"/>
        <path d="M30670 24191 c-464 -99 -846 -519 -935 -1025 -20 -117 -20 -336 1
-457 94 -547 534 -986 1041 -1038 295 -30 610 80 843 296 33 30 70 68 81 84
19 27 19 28 1 38 -16 8 -31 -3 -99 -69 -132 -130 -289 -219 -472 -267 -125
-33 -339 -38 -441 -10 -414 113 -669 561 -670 1179 l0 156 468 5 c370 4 483 8
545 20 249 51 398 119 517 237 274 273 127 669 -303 816 -161 55 -411 70 -577
35z m390 -63 c80 -24 145 -64 202 -126 148 -158 167 -471 41 -652 -68 -96
-201 -166 -381 -201 -32 -6 -241 -13 -478 -16 l-421 -5 8 63 c74 554 348 904
751 959 84 11 198 2 278 -22z"/>
        <path d="M32560 24196 c-238 -51 -416 -180 -511 -371 -43 -87 -59 -157 -59
-260 0 -153 43 -265 140 -364 107 -111 225 -174 539 -285 344 -123 461 -182
560 -286 183 -191 174 -548 -18 -740 -194 -194 -581 -225 -849 -68 -79 46
-201 169 -250 253 -47 80 -92 207 -92 259 0 25 -4 36 -15 36 -13 0 -15 -43
-15 -331 0 -260 3 -330 13 -327 6 3 14 18 17 34 6 36 43 56 90 48 19 -4 103
-26 186 -49 212 -61 307 -77 454 -77 258 1 435 68 596 227 163 161 229 372
194 615 -23 161 -84 285 -196 395 -116 115 -251 186 -569 299 -329 118 -462
202 -527 334 -31 62 -33 73 -33 172 0 102 1 109 38 182 61 125 165 202 327
244 94 25 280 22 383 -5 242 -64 399 -228 445 -464 11 -55 22 -87 30 -87 18 0
13 581 -5 588 -8 2 -13 -6 -13 -20 0 -35 -27 -68 -56 -68 -14 0 -80 18 -147
40 -211 71 -266 81 -437 86 -107 2 -175 -1 -220 -10z"/>
        <path d="M12322 20940 c-124 -26 -239 -115 -289 -224 -24 -54 -28 -73 -28
-161 0 -88 3 -107 27 -157 67 -144 208 -228 383 -228 237 0 406 141 422 354
14 179 -91 337 -264 397 -64 23 -189 32 -251 19z m234 -101 c151 -57 227 -219
179 -385 -22 -77 -96 -152 -176 -180 -72 -25 -205 -25 -276 -1 -116 41 -193
150 -193 276 0 146 77 257 205 297 66 21 195 17 261 -7z"/>
        <path d="M15581 20940 c-71 -15 -163 -64 -210 -111 -24 -24 -58 -73 -75 -109
-28 -59 -31 -74 -31 -165 0 -89 3 -107 28 -160 66 -142 207 -225 382 -225 182
0 326 83 393 228 22 48 27 71 27 147 0 107 -18 168 -73 239 -46 62 -114 111
-187 137 -66 23 -191 32 -254 19z m232 -100 c151 -57 230 -222 183 -385 -14
-45 -29 -69 -69 -109 -70 -68 -132 -91 -252 -90 -146 1 -241 51 -297 157 -19
35 -23 58 -23 137 0 84 3 102 28 152 52 105 148 157 294 158 59 0 98 -6 136
-20z"/>
        <path d="M17372 20939 c-229 -38 -359 -255 -297 -494 43 -164 173 -261 365
-272 136 -9 265 30 338 100 l32 31 0 138 0 138 -206 0 -205 0 3 -32 3 -33 163
-3 162 -2 0 -90 0 -90 -37 -24 c-64 -41 -145 -59 -242 -53 -138 8 -219 55
-268 155 -25 50 -28 68 -28 152 0 111 19 164 80 223 59 57 131 80 250 81 119
0 183 -18 243 -69 l40 -35 22 31 22 30 -23 25 c-74 79 -257 119 -417 93z"/>
        <path d="M10497 20933 c-4 -3 -7 -172 -7 -375 l0 -368 45 0 45 0 0 160 0 160
220 0 220 0 0 35 0 35 -220 0 -220 0 0 135 0 135 248 2 247 3 0 40 0 40 -286
3 c-157 1 -288 -1 -292 -5z"/>
        <path d="M13720 20895 l0 -45 145 0 145 0 0 -330 0 -330 45 0 45 0 0 330 0
329 143 3 142 3 0 40 0 40 -332 3 -333 2 0 -45z"/>
        <path d="M18818 20934 c-5 -4 -8 -173 -8 -376 l0 -368 45 0 45 0 0 135 0 135
144 0 144 0 127 -135 127 -135 49 0 c27 0 49 3 49 6 0 4 -59 67 -131 141
l-131 135 49 23 c90 42 133 111 133 214 0 91 -38 157 -115 196 l-59 30 -230 3
c-127 2 -234 0 -238 -4z m482 -102 c47 -23 74 -74 74 -137 0 -67 -27 -114 -84
-142 -41 -21 -58 -23 -217 -23 l-173 0 0 160 0 160 183 0 c153 0 187 -3 217
-18z"/>
        <path d="M20782 20888 c-64 -114 -372 -687 -372 -692 0 -3 20 -6 44 -6 l45 0
56 105 57 105 230 -2 231 -3 55 -102 55 -103 49 0 49 0 -50 93 c-335 620 -355
652 -387 655 -29 3 -35 -2 -62 -50z m156 -240 c51 -94 91 -172 89 -175 -2 -2
-88 -2 -190 -1 l-187 3 93 172 c50 95 94 173 97 173 3 0 47 -77 98 -172z"/>
        <path d="M22227 20933 c-4 -3 -7 -172 -7 -375 l0 -368 45 0 45 0 0 160 0 160
220 0 220 0 0 35 0 35 -220 0 -220 0 0 135 0 135 248 2 247 3 0 40 0 40 -286
3 c-157 1 -288 -1 -292 -5z"/>
        <path d="M23797 20934 c-4 -4 -7 -173 -7 -376 l0 -368 45 0 45 0 -2 373 -3
372 -35 3 c-20 2 -39 0 -43 -4z"/>
        <path d="M25149 20788 c-45 -84 -135 -251 -201 -371 -65 -120 -118 -221 -118
-223 0 -3 21 -4 47 -2 l47 3 55 103 54 102 231 -2 231 -3 55 -102 55 -103 47
0 c27 0 48 2 48 3 0 7 -392 722 -402 735 -6 6 -23 12 -38 12 -26 0 -35 -12
-111 -152z m211 -141 c51 -92 90 -170 88 -173 -3 -2 -89 -3 -191 -2 l-186 3
87 160 c98 180 103 188 107 183 1 -2 44 -79 95 -171z"/>
    </g>
</svg>