<?xml version="1.0" encoding="UTF-8"?>
<svg version="1.1" xmlns="http://www.w3.org/2000/svg" width="512" height="512">
<path d="M0 0 C1.04913574 0.01015137 2.09827148 0.02030273 3.17919922 0.03076172 C20.79425719 0.38051429 38.43258171 4.48867086 51.25 17.375 C62.27266311 30.36445202 68.25805254 48.26613509 66.9609375 65.3125 C66.00262397 74.86132501 66.00262397 74.86132501 69.4140625 83.42578125 C72.25021382 85.68767053 75.11756944 87.55052581 78.25 89.375 C99.14956234 104.97283513 109.90892077 130.67041561 113.76675415 155.73197937 C115.14087461 165.82083648 115.53120468 175.67124273 115.48046875 185.84375 C115.47927192 187.46081505 115.47882485 189.07788081 115.4790802 190.69494629 C115.47753262 194.04960615 115.46937241 197.40415667 115.45581055 200.75878906 C115.43871271 205.03980133 115.43500042 209.32069554 115.43575573 213.60173798 C115.43548302 216.92701322 115.42998745 220.25226313 115.42275429 223.57752991 C115.4195948 225.15625315 115.41760665 226.73497922 115.41686058 228.31370544 C115.41467404 230.51843099 115.40588386 232.72303527 115.39526367 234.92773438 C115.39145187 236.17631226 115.38764008 237.42489014 115.38371277 238.71130371 C115.23945062 242.66405032 114.79387549 246.45919112 114.25 250.375 C107.03592188 250.66711833 99.82154568 250.95087719 92.60693359 251.22949219 C90.16545601 251.32468522 87.72404557 251.42162015 85.28271484 251.52050781 C68.26277682 252.20832386 51.28380637 252.51487934 34.25 252.375 C34.48046021 253.62144287 34.48046021 253.62144287 34.71557617 254.89306641 C35.2878466 258.62158209 35.59050346 262.32393175 35.80078125 266.0859375 C35.84262039 266.82339203 35.88445953 267.56084656 35.92756653 268.32064819 C36.37685303 276.87832015 36.44918727 285.43214537 36.4375 294 C36.43689575 294.82683289 36.4362915 295.65366577 36.43566895 296.5055542 C36.3138928 358.18517087 36.3138928 358.18517087 20.9296875 376.7578125 C12.65102623 384.72843056 4.12635721 384.81721739 -6.765625 384.64453125 C-14.41502005 384.35590166 -19.96329821 382.50691228 -25.5 377.125 C-36.52638476 363.07024196 -40.14861774 339.67689098 -41.75 322.375 C-41.83685059 321.49207275 -41.92370117 320.60914551 -42.01318359 319.69946289 C-42.80628249 310.80482366 -42.90331763 301.95963163 -42.88037109 293.0378418 C-42.87503059 290.57659686 -42.8803393 288.11553617 -42.88671875 285.65429688 C-42.89946996 258.82340987 -42.89946996 258.82340987 -40.75 252.375 C-49.66 252.045 -58.57 251.715 -67.75 251.375 Z" fill="currentColor" transform="translate(236.75,127.625)"/>
<path d="M0 0 C0.95583984 -0.02900391 1.91167969 -0.05800781 2.89648438 -0.08789062 C10.83219046 -0.15821386 16.41689601 1.83347928 23.0625 6.0625 C30.48779954 13.48779954 33.25304295 23.06940221 34.3125 33.3125 C34.20627825 35.774519 33.98132879 38.20690719 33.73675537 40.65896606 C30.61817833 62.74062575 30.61817833 62.74062575 36.73242188 83.04980469 C42.56160689 89.0804816 50.45761421 92.50680417 58.0390625 95.80126953 C62.36676589 97.79921732 65.83361479 100.35611507 69.4375 103.4375 C69.96923828 103.8711084 70.50097656 104.3047168 71.04882812 104.75146484 C72.48274411 105.92311297 73.89823526 107.11720522 75.3125 108.3125 C76.199375 109.04855469 77.08625 109.78460938 78 110.54296875 C85.94042068 117.32541141 90.14099517 124.15430971 91.63671875 134.5703125 C92.15148016 144.47503211 87.74785843 152.7317092 81.4609375 160.08203125 C74.73463497 167.06515624 68.37342678 170.56161812 58.5 170.75 C49.21792404 170.57449856 44.34954661 167.5197815 37.9375 161.0625 C37.18984375 160.27875 36.4421875 159.495 35.671875 158.6875 C32.45830603 155.45264912 28.94876499 152.67449734 25.3984375 149.8203125 C-8.56841333 122.2168717 -28.09793472 89.37635262 -32.6875 45.3125 C-33.61450935 31.72601928 -32.34209386 18.16150814 -23.25 7.4375 C-15.3105275 0.85354719 -9.98006699 0.09894316 0 0 Z M-72.38671875 24.79296875 C-80.34905106 34.96632887 -86.40246171 45.75675439 -85 59 C-81.64564369 73.81170587 -72.59772417 85.99075296 -60.421875 94.8828125 C-57.99704328 96.40023864 -55.56515787 97.73577275 -53 99 C-52.19949219 99.39960937 -51.39898437 99.79921875 -50.57421875 100.2109375 C-39.91684483 105.00420615 -28.34906307 105.16117197 -17.44140625 101.03125 C-1.89888475 93.85404818 8.46024196 81.51866907 15 66 C18.39520718 55.70082638 18.09724234 46.55620147 13.48046875 36.71484375 C11.33359878 32.77797137 8.96960453 29.35663829 6 26 C5.41476562 25.33355469 4.82953125 24.66710937 4.2265625 23.98046875 C-5.68742099 13.39880882 -21.09622718 4.33339201 -35.8125 3.625 C-49.97343061 3.96777593 -63.55452974 14.45742842 -72.38671875 24.79296875 Z " fill="currentColor" transform="translate(270,10)"/>
</svg>
